<svg width="91" height="91" viewBox="0 0 91 91" fill="none" xmlns="http://www.w3.org/2000/svg">
<path d="M56.6226 64.776H34.8247C34.538 64.776 34.263 64.6621 34.0603 64.4593C33.8576 64.2566 33.7437 63.9816 33.7437 63.6949L33.7437 29.8516C33.7437 29.8127 33.7437 29.7738 33.7437 29.7349C34.4064 23.6246 38.1231 18.3122 45.1047 13.4949C45.2852 13.3705 45.4991 13.3039 45.7183 13.3039C45.9374 13.3039 46.1513 13.3705 46.3318 13.4949C53.3231 18.3111 57.0345 23.6246 57.6918 29.7381C57.6961 29.7762 57.6983 29.8144 57.6983 29.8527L57.6983 63.6949C57.6983 63.9807 57.5851 64.2548 57.3835 64.4574C57.182 64.66 56.9084 64.7745 56.6226 64.776V64.776ZM35.9058 62.6138L55.5415 62.6138L55.5415 29.91C54.9545 24.5857 51.828 20.056 45.7285 15.7046C39.6323 20.0581 36.5058 24.5879 35.9101 29.9111L35.9058 62.6138Z" fill="white"/>
<path d="M29.255 67.0095C29.1058 67.0096 28.9582 66.9789 28.8214 66.9192C28.6847 66.8594 28.5617 66.772 28.4604 66.6625L26.9988 65.0755C25.4993 63.4696 24.4945 61.4656 24.1047 59.3034C23.7149 57.1412 23.9566 54.9125 24.801 52.8841L24.8561 52.7544C26.7061 48.4501 30.1452 45.0254 34.4572 43.1933C34.6205 43.1343 34.7956 43.1154 34.9677 43.1384C35.1399 43.1614 35.3039 43.2255 35.446 43.3253C35.5881 43.4251 35.7041 43.5576 35.7842 43.7117C35.8642 43.8658 35.9059 44.037 35.9058 44.2106V59.4203C35.9057 59.6038 35.8589 59.7842 35.7698 59.9446C35.6808 60.105 35.5523 60.24 35.3966 60.3371C33.1585 61.822 31.3784 63.9012 30.2561 66.3414C30.1862 66.5089 30.0754 66.6561 29.9337 66.7694C29.792 66.8828 29.624 66.9587 29.4453 66.9901C29.3825 67.002 29.3189 67.0085 29.255 67.0095V67.0095ZM25.7956 53.309L26.7891 53.7328C26.1077 55.378 25.9151 57.1848 26.2344 58.9368C26.5536 60.6887 27.3712 62.3114 28.5891 63.6106L28.9999 64.0571C30.1841 61.9937 31.8028 60.2124 33.7437 58.8365V45.9414C30.6813 47.6971 28.2613 50.3869 26.8377 53.6171L25.7956 53.309Z" fill="white"/>
<path d="M62.2021 67.0095C62.1383 67.0095 62.0747 67.0041 62.0118 66.9933C61.8331 66.9619 61.6651 66.8861 61.5234 66.7727C61.3817 66.6593 61.2709 66.5121 61.201 66.3447C60.0787 63.9044 58.2986 61.8252 56.0605 60.3403C55.9048 60.2433 55.7763 60.1082 55.6873 59.9478C55.5982 59.7874 55.5514 59.607 55.5513 59.4236V44.2106C55.5512 44.037 55.5929 43.8658 55.6729 43.7117C55.753 43.5576 55.869 43.4251 56.0111 43.3253C56.1532 43.2255 56.3172 43.1614 56.4894 43.1384C56.6615 43.1154 56.8366 43.1343 56.9999 43.1933C61.3119 45.0254 64.751 48.4501 66.601 52.7544L66.6561 52.8841C67.5005 54.9125 67.7422 57.1412 67.3524 59.3034C66.9626 61.4656 65.9578 63.4696 64.4583 65.0755L62.9967 66.6625C62.8954 66.772 62.7724 66.8594 62.6357 66.9192C62.4989 66.9789 62.3513 67.0096 62.2021 67.0095V67.0095ZM57.7134 58.8365C59.6543 60.2124 61.273 61.9937 62.4572 64.0571L62.868 63.6106C64.0853 62.3117 64.9025 60.6896 65.2217 58.9383C65.5409 57.187 65.3487 55.3809 64.668 53.736L65.6097 53.1955L64.6194 53.6279C63.1958 50.3977 60.7758 47.7079 57.7134 45.9522V58.8365Z" fill="white"/>
<path d="M45.7286 35.0797C44.6024 35.0799 43.5014 34.7461 42.5649 34.1206C41.6284 33.495 40.8984 32.6058 40.4673 31.5654C40.0361 30.525 39.9232 29.38 40.1428 28.2754C40.3624 27.1708 40.9046 26.1561 41.7009 25.3597C42.4972 24.5633 43.5117 24.0208 44.6163 23.8011C45.7209 23.5813 46.8658 23.694 47.9063 24.1249C48.9468 24.5558 49.8362 25.2857 50.4619 26.2221C51.0876 27.1585 51.4216 28.2594 51.4216 29.3856C51.4199 30.8951 50.8196 32.3422 49.7524 33.4096C48.6851 34.4771 47.2381 35.0777 45.7286 35.0797V35.0797ZM45.7286 25.8548C45.03 25.8546 44.347 26.0616 43.766 26.4496C43.185 26.8376 42.7322 27.3892 42.4647 28.0346C42.1973 28.68 42.1272 29.3902 42.2635 30.0755C42.3997 30.7607 42.7361 31.3901 43.2301 31.8841C43.7241 32.3781 44.3536 32.7145 45.0388 32.8508C45.724 32.987 46.4342 32.917 47.0797 32.6495C47.7251 32.3821 48.2767 31.9292 48.6647 31.3482C49.0527 30.7673 49.2597 30.0843 49.2595 29.3856C49.2583 28.4495 48.8859 27.5521 48.224 26.8902C47.5621 26.2283 46.6647 25.8559 45.7286 25.8548V25.8548Z" fill="white"/>
<path d="M55.5037 69.2451H35.9437C35.657 69.2451 35.382 69.1312 35.1793 68.9285C34.9765 68.7257 34.8626 68.4508 34.8626 68.164V63.6949C34.8626 63.4081 34.9765 63.1332 35.1793 62.9304C35.382 62.7277 35.657 62.6138 35.9437 62.6138H55.5037C55.7904 62.6138 56.0654 62.7277 56.2681 62.9304C56.4709 63.1332 56.5848 63.4081 56.5848 63.6949V68.164C56.5848 68.4508 56.4709 68.7257 56.2681 68.9285C56.0654 69.1312 55.7904 69.2451 55.5037 69.2451ZM37.0248 67.083H54.4226V64.7759H37.0248V67.083Z" fill="white"/>
<path d="M45.8011 88.9793C45.0848 88.946 44.3948 88.6997 43.8193 88.272C43.2438 87.8442 42.8091 87.2545 42.5708 86.5782C41.6155 84.4509 40.3872 82.4572 38.9167 80.6474C36.4919 77.4668 34.5762 74.9544 37.1167 67.803C37.1913 67.5925 37.3293 67.4103 37.5116 67.2814C37.694 67.1525 37.9118 67.0832 38.1351 67.083H53.2962C53.5197 67.0829 53.7378 67.1521 53.9203 67.2811C54.1029 67.41 54.241 67.5924 54.3157 67.803C55.0507 69.6784 55.4655 71.6638 55.5427 73.6766C55.5427 76.7274 54.1762 78.5544 52.5946 80.6701C51.1542 82.4793 49.951 84.4651 49.014 86.5793C48.7796 87.2533 48.3491 87.8419 47.7778 88.2695C47.2064 88.6972 46.5203 88.9443 45.8076 88.9793H45.8011ZM38.9081 69.2452C37.1124 74.7144 38.3903 76.3912 40.6378 79.3371C42.2133 81.2854 43.5302 83.4293 44.5557 85.7155C44.8551 86.4052 45.3221 86.8171 45.8032 86.8171C46.2789 86.8171 46.7373 86.4074 47.0313 85.7252C48.0363 83.455 49.3247 81.3213 50.8659 79.3749C52.3794 77.3479 53.3838 76.0084 53.3838 73.6766C53.3291 72.1636 53.0399 70.6683 52.5265 69.2441L38.9081 69.2452Z" fill="white"/>
<path d="M45.7632 78.7533C45.2948 78.7348 44.8424 78.5782 44.4627 78.3034C44.083 78.0285 43.793 77.6476 43.6291 77.2085C43.1586 76.1618 42.5543 75.1806 41.8313 74.2895C40.6118 72.6841 39.561 71.2982 40.6324 67.8398C40.7014 67.6202 40.8388 67.4283 41.0245 67.2922C41.2102 67.1561 41.4345 67.0828 41.6648 67.083H49.7729C50.003 67.083 50.227 67.1564 50.4125 67.2925C50.598 67.4286 50.7352 67.6203 50.8042 67.8398C51.0848 68.6682 51.2394 69.5341 51.2626 70.4084C51.2088 71.8567 50.6373 73.2377 49.6518 74.3003C48.9441 75.1909 48.3524 76.1677 47.8907 77.2074C47.7287 77.6457 47.4407 78.0263 47.0629 78.3014C46.6851 78.5765 46.2344 78.7337 45.7675 78.7533H45.7632ZM42.4853 69.2452C42.0724 71.042 42.5761 71.7047 43.548 72.9836C44.3762 74.0111 45.0684 75.1412 45.6075 76.3457C45.6414 76.442 45.7008 76.5272 45.7794 76.5922C45.7632 76.5749 45.8345 76.5079 45.9005 76.3533C46.429 75.1549 47.1079 74.0288 47.921 73.002C48.6138 72.3074 49.0327 71.3861 49.1005 70.4074C49.0937 70.014 49.0426 69.6227 48.948 69.2409L42.4853 69.2452Z" fill="white"/>
<path d="M45.7287 58.7586C45.4419 58.7586 45.167 58.6447 44.9642 58.4419C44.7615 58.2392 44.6476 57.9642 44.6476 57.6775V51.3402C44.6476 51.0535 44.7615 50.7785 44.9642 50.5758C45.167 50.373 45.4419 50.2591 45.7287 50.2591C46.0154 50.2591 46.2904 50.373 46.4931 50.5758C46.6959 50.7785 46.8097 51.0535 46.8097 51.3402V57.6775C46.8097 57.9642 46.6959 58.2392 46.4931 58.4419C46.2904 58.6447 46.0154 58.7586 45.7287 58.7586Z" fill="white"/>
<path d="M40.6473 58.7318C40.3606 58.7318 40.0856 58.6179 39.8829 58.4152C39.6801 58.2124 39.5662 57.9375 39.5662 57.6507V54.8637C39.5662 54.577 39.6801 54.302 39.8829 54.0993C40.0856 53.8965 40.3606 53.7826 40.6473 53.7826C40.934 53.7826 41.209 53.8965 41.4117 54.0993C41.6145 54.302 41.7284 54.577 41.7284 54.8637V57.6507C41.7284 57.9375 41.6145 58.2124 41.4117 58.4152C41.209 58.6179 40.934 58.7318 40.6473 58.7318Z" fill="white"/>
<path d="M50.7967 58.7318C50.5099 58.7318 50.235 58.6179 50.0322 58.4152C49.8295 58.2124 49.7156 57.9375 49.7156 57.6507V54.8637C49.7156 54.577 49.8295 54.302 50.0322 54.0993C50.235 53.8965 50.5099 53.7826 50.7967 53.7826C51.0834 53.7826 51.3584 53.8965 51.5611 54.0993C51.7638 54.302 51.8777 54.577 51.8777 54.8637V57.6507C51.8777 57.9375 51.7638 58.2124 51.5611 58.4152C51.3584 58.6179 51.0834 58.7318 50.7967 58.7318Z" fill="white"/>
</svg>
